# xmcd CD database file
#
# Track frame offsets:
#	150
#	2405
#	14805
#	24025
#	43677
#	73015
#	79455
#	109137
#	123892
#	152432
#	202250
#	222712
#	244697
#	264317
#	265727
#
# Disc length: 3853 seconds
#
# Revision: 0
# Processed by: cddbd v1.5.1PL0 Copyright (c) Steve Scherf et al.
# Submitted via: CDex 1.51
#
DISCID=cc0f0b0f
DTITLE=Various Artist - Gaia Symphony No. 5
DYEAR=2004
DGENRE=New Age
TTITLE0=SE (Embryo Pulse)
TTITLE1=Kelly Yost - Prelude in C Major (Bach)
TTITLE2=SE (Open Spirit)
TTITLE3=Boys Air Choir - Maria Matrem Virginem
TTITLE4=K. Ishigaki, H. Masago and M. Endo - Mapai
TTITLE5=Tatsuo Satoh - Preludio No. 11 (Tarrega)
TTITLE6=Tingara - Hikari-sansan
TTITLE7=Epo - Cuncti Simus
TTITLE8=Ervin Laszlo - Sonata No. 14 'Moonlight' (Beethoven)
TTITLE9=Fumio Miyashita - Cosmic Shower
TTITLE10=Michiko - Sadako and Thousand Paper Cranes
TTITLE11=Norie Suzuki - Ave Maria (Caccini)
TTITLE12=Kelly Yost - Canon (Pachebel)
TTITLE13=SE (Embryo Pulse)
TTITLE14=Tingara - Kamigami-no-jikan
EXTD=YEAR: 2004
EXTT0=
EXTT1=
EXTT2=
EXTT3=
EXTT4=
EXTT5=
EXTT6=
EXTT7=
EXTT8=
EXTT9=
EXTT10=
EXTT11=
EXTT12=
EXTT13=
EXTT14=
PLAYORDER=
